# xmcd
#
# Track frame offsets:
#	187
#	17375
#	35375
#	52837
#	71112
#	90250
#	110150
#	127300
#	144312
#	158975
#	172725
#	189212
#	201825
#	220937
#	237025
#
# Disc length: 3387 seconds
#
# Revision: 1
# Processed by: cddbd v1.5.1PL0 Copyright (c) Steve Scherf et al.
# Submitted via: CDex 1.50Beta5
#
DISCID=c40d390f
DTITLE=MOON DOGS,THE - MOON DOGS BEST
DYEAR=1991
DGENRE=Pop
TTITLE0=シンデレラリバティ
TTITLE1=火の玉シェビー
TTITLE2=WHY DO YOU STOP
TTITLE3=本牧SOUL NITE
TTITLE4=恋はSweet Soul Music
TTITLE5=サングラスごしの夏
TTITLE6=Funny Girl Cha Cha
TTITLE7=恋はムスタングサリー
TTITLE8=GO!GO!GO!
TTITLE9=いかれたウィーク・エンド
TTITLE10=恋のあやつり人形
TTITLE11=愛しのイリヤ
TTITLE12=ダンス・ウィズ・ミー
TTITLE13=我愛★
TTITLE14=I LOVE JESUS
EXTD=
EXTT0=
EXTT1=
EXTT2=
EXTT3=
EXTT4=
EXTT5=
EXTT6=
EXTT7=
EXTT8=
EXTT9=
EXTT10=
EXTT11=
EXTT12=
EXTT13=
EXTT14=
PLAYORDER=
